HIERARCHY
ROOT SpineBase
{
  OFFSET 0.000000 0.000000 0.000000
  CHANNELS 6 Xposition Yposition Zposition Zrotation Xrotation Yrotation
  JOINT SpineMid
  {
    OFFSET 0.000000 31.097727 0.000000
    CHANNELS 3 Zrotation Xrotation Yrotation
    JOINT SpineShoulder
    {
      OFFSET 0.190485 23.198450 -0.991522
      CHANNELS 3 Zrotation Xrotation Yrotation
      JOINT Neck
      {
        OFFSET 0.083167 7.700500 -0.670676
        CHANNELS 3 Zrotation Xrotation Yrotation
        JOINT Head
        {
          OFFSET -2.338198 9.247151 3.857847
          CHANNELS 3 Zrotation Xrotation Yrotation
          End Site
          {
            OFFSET 0 0 0
          }
        }
      }
      JOINT ShoulderLeft
      {
        OFFSET -10.530897 -7.341444 6.371453
        CHANNELS 3 Zrotation Xrotation Yrotation
        JOINT ElbowLeft
        {
          OFFSET -2.756110 -23.159996 -5.957366
          CHANNELS 3 Zrotation Xrotation Yrotation
          JOINT WristLeft
          {
            OFFSET 4.094990 10.168215 -19.072074
            CHANNELS 3 Zrotation Xrotation Yrotation
            JOINT HandLeft
            {
              OFFSET 2.181850 5.052886 -1.813423
              CHANNELS 3 Zrotation Xrotation Yrotation
              JOINT HandTipLeft
              {
                OFFSET -0.471251 1.254202 -1.679462
                CHANNELS 3 Zrotation Xrotation Yrotation
                End Site
                {
                  OFFSET 0 0 0
                }
              }
              JOINT ThumbLeft
              {
                OFFSET 0.356461 0.062105 -1.989711
                CHANNELS 3 Zrotation Xrotation Yrotation
                End Site
                {
                  OFFSET 0 0 0
                }
              }
            }
          }
        }
      }
      JOINT ShoulderRight
      {
        OFFSET 6.989678 -3.750126 -12.654046
        CHANNELS 3 Zrotation Xrotation Yrotation
        JOINT ElbowRight
        {
          OFFSET 1.072218 -26.050277 -5.795784
          CHANNELS 3 Zrotation Xrotation Yrotation
          JOINT WristRight
          {
            OFFSET -5.858755 -20.950480 -3.320871
            CHANNELS 3 Zrotation Xrotation Yrotation
            JOINT HandRight
            {
              OFFSET -0.615145 -6.316563 0.845762
              CHANNELS 3 Zrotation Xrotation Yrotation
              JOINT HandTipRight
              {
                OFFSET -2.854592 -5.760398 -0.719822
                CHANNELS 3 Zrotation Xrotation Yrotation
                End Site
                {
                  OFFSET 0 0 0
                }
              }
              JOINT ThumbRight
              {
                OFFSET 6.325800 -4.058503 1.218782
                CHANNELS 3 Zrotation Xrotation Yrotation
                End Site
                {
                  OFFSET 0 0 0
                }
              }
            }
          }
        }
      }
    }
  }
  JOINT HipLeft
  {
    OFFSET -3.630954 -0.000191 1.208580
    CHANNELS 3 Zrotation Xrotation Yrotation
    JOINT KneeLeft
    {
      OFFSET -2.472036 -35.297734 3.142128
      CHANNELS 3 Zrotation Xrotation Yrotation
      JOINT AnkleLeft
      {
        OFFSET 7.865640 -30.239291 -0.770011
        CHANNELS 3 Zrotation Xrotation Yrotation
        JOINT FootLeft
        {
          OFFSET 8.526544 -3.410553 -7.789448
          CHANNELS 3 Zrotation Xrotation Yrotation
          End Site
          {
            OFFSET 0 0 0
          }
        }
      }
    }
  }
  JOINT HipRight
  {
    OFFSET 4.198330 2.078941 -7.857865
    CHANNELS 3 Zrotation Xrotation Yrotation
    JOINT KneeRight
    {
      OFFSET 3.532301 -34.775961 -2.025702
      CHANNELS 3 Zrotation Xrotation Yrotation
      JOINT AnkleRight
      {
        OFFSET 0.987881 -30.065372 8.247012
        CHANNELS 3 Zrotation Xrotation Yrotation
        JOINT FootRight
        {
          OFFSET -1.324971 -5.612653 -6.217526
          CHANNELS 3 Zrotation Xrotation Yrotation
          End Site
          {
            OFFSET 0 0 0
          }
        }
      }
    }
  }
}
MOTION
Frames: 5
Frame Time: 0.033333
-25.851565 75.154530 330.070508 -0.000000 0.000000 49.187912 -0.000000 0.000000 -49.187912 -0.000000 0.000000 0.000000 -0.000000 0.000000 0.000000 0.000000 0.000000 0.000000 -0.000000 0.000000 0.000000 -0.000000 0.000000 0.000000 -0.000000 0.000000 0.000000 -0.000000 0.000000 0.000000 0.000000 0.000000 0.000000 0.000000 0.000000 0.000000 -0.000000 0.000000 0.000000 -0.000000 0.000000 0.000000 -0.000000 0.000000 0.000000 -0.000000 0.000000 0.000000 0.000000 0.000000 0.000000 0.000000 0.000000 0.000000 -0.000000 0.000000 -49.187912 -0.000000 0.000000 0.000000 -0.000000 0.000000 0.000000 0.000000 0.000000 0.000000 -0.000000 0.000000 -49.187912 -0.000000 0.000000 0.000000 -0.000000 0.000000 0.000000 0.000000 0.000000 0.000000
-25.809058 75.126436 329.801762 0.159140 0.238450 49.432496 -0.284632 -0.034185 -49.432912 -0.000000 0.000000 0.000000 -1.722253 -2.220945 0.125016 0.000000 0.000000 0.000000 -0.000000 0.000000 0.000000 -0.000000 0.000000 0.000000 -3.913788 17.336652 -8.682893 1.299446 -22.062225 -0.948056 0.000000 0.000000 0.000000 0.000000 0.000000 0.000000 -0.000000 0.000000 0.000000 -0.000000 0.000000 0.000000 0.579899 1.039354 -0.028884 2.496996 -1.907765 0.145667 0.000000 0.000000 0.000000 0.000000 0.000000 0.000000 -0.284632 -0.034185 -49.432912 -0.000000 0.000000 0.000000 -3.442406 0.274477 9.180143 0.000000 0.000000 0.000000 -0.284632 -0.034185 -49.432912 0.814959 0.660135 0.240869 -10.858618 8.544744 8.505346 0.000000 0.000000 0.000000
-25.765687 75.100185 329.567223 0.286855 0.420641 49.590399 0.566658 0.004436 -49.570421 0.042383 0.182417 0.027615 -3.774072 -4.981473 0.069413 0.000000 0.000000 0.000000 -0.694079 -1.036809 -0.055486 -0.000000 0.000000 0.000000 -5.232066 29.086276 -14.339538 2.935912 -36.938732 -3.966716 0.000000 0.000000 0.000000 0.000000 0.000000 0.000000 -0.694079 -1.036809 -0.055486 -0.000000 0.000000 0.000000 1.084900 1.914789 -0.059542 4.491513 -3.344824 0.299416 0.000000 0.000000 0.000000 0.000000 0.000000 0.000000 -0.506241 -0.054254 -49.591692 -0.000000 0.000000 0.000000 -6.435092 -0.064004 16.831335 0.000000 0.000000 0.000000 -1.529349 -0.568237 -49.694470 1.819182 2.344655 0.514682 -18.578144 12.479513 14.545078 0.000000 0.000000 0.000000
-25.721452 75.075778 329.366890 0.382742 0.545931 49.668225 0.728375 0.009156 -49.642637 0.038744 0.225142 0.034332 -4.943732 -6.491497 0.033749 0.000000 0.000000 0.000000 -0.887394 -1.331262 -0.073140 -0.000000 0.000000 0.000000 -5.528979 36.351625 -18.027140 3.809232 -45.876116 -7.383367 0.000000 0.000000 0.000000 0.000000 0.000000 0.000000 -0.709081 -2.288889 -0.146973 -0.618506 1.681980 -0.042349 1.949504 1.912091 0.066991 6.017751 -4.337069 0.394480 0.000000 0.000000 0.000000 0.000000 0.000000 0.000000 -0.663881 -0.061555 -49.670405 -0.000000 0.000000 0.000000 -8.549988 -0.720705 21.899197 0.000000 0.000000 0.000000 -2.044911 -0.721351 -49.807541 2.583102 3.182837 0.693985 -23.751938 13.938273 18.494591 0.000000 0.000000 0.000000
-25.676353 75.053213 329.200764 0.446503 0.613879 49.669893 0.805821 0.016867 -49.641449 0.018055 0.234233 0.036461 -5.618685 -7.333196 0.011069 0.000000 0.000000 0.000000 -0.044285 -1.412417 -0.304789 -0.930099 -0.064849 0.246240 -5.561580 40.722282 -20.390168 4.254793 -50.662128 -9.893545 0.000000 0.000000 0.000000 0.000000 0.000000 0.000000 -0.710212 -2.665995 -0.180492 -0.720648 1.985319 -0.026186 2.325098 2.411452 0.066731 7.102244 -4.904759 0.382402 0.000000 0.000000 0.000000 0.000000 0.000000 0.000000 -0.756947 -0.056898 -49.672661 -0.000000 0.000000 0.000000 -9.638998 -1.383945 23.923387 0.000000 0.000000 0.000000 -2.391088 -0.790980 -49.830757 3.239050 3.784114 0.830934 -27.076878 13.978080 20.962546 0.000000 0.000000 0.000000
